#!OML:ASF H:\Dans Jumps\Project 1\Capture day 1\Session 1\subject.ASF
:FULLY-SPECIFIED
:DEGREES
184
root 0.471263 17.4201 -14.4693 6.74221 0.659252 -2.52492
lowerback -0.0406649 -0.742416 0.770321
upperback 4.79963 -1.09803 1.99833
thorax 5.00327 -0.561477 1.58738
lowerneck -11.8291 0.352967 -2.40488
upperneck 32.1528 0.878738 0.737858
head 12.6064 0.189267 0.82635
rclavicle -3.27995e-015 1.5704e-014
rhumerus -18.9697 -15.5709 -81.7294
rradius 25.9485
rwrist 31.7096
rhand -18.2561 -26.6114
rfingers 7.12502
rthumb 8.0232 -56.4391
lclavicle -3.27995e-015 1.5704e-014
lhumerus -16.8437 -0.792915 87.8129
lradius 18.7285
lwrist 0.27922
lhand -23.2055 -3.21967
lfingers 7.12502
lthumb 3.24464 26.7354
rfemur -16.182 -2.81683 19.8497
rtibia 24.3114
rfoot -14.1886 -2.8053
rtoes 3.79783
lfemur -17.4365 7.78199 -16.7919
ltibia 24.5643
lfoot -12.1577 4.75612
ltoes -13.4573
185
root 0.471772 17.4141 -14.4742 6.76566 0.664987 -2.52802
lowerback 0.0301955 -0.74276 0.755569
upperback 4.79142 -1.09647 2.00065
thorax 4.95453 -0.561368 1.59895
lowerneck -11.8412 0.350723 -2.39782
upperneck 31.9971 0.874048 0.73489
head 12.5445 0.189311 0.822058
rclavicle -5.81445e-015 1.41137e-014
rhumerus -18.9861 -15.5105 -81.6989
rradius 25.968
rwrist 31.6406
rhand -18.2774 -26.5585
rfingers 7.12502
rthumb 8.00256 -56.387
lclavicle -5.81445e-015 1.41137e-014
lhumerus -16.9112 -0.771936 87.7861
lradius 18.7756
lwrist 0.366967
lhand -23.2094 -3.23132
lfingers 7.12502
lthumb 3.24085 26.7238
rfemur -16.3497 -2.81623 19.8553
rtibia 24.5479
rfoot -14.2723 -2.83564
rtoes 3.70439
lfemur -17.6019 7.79925 -16.7983
ltibia 24.792
lfoot -12.2412 4.7693
ltoes -13.4939
186
root 0.472214 17.4073 -14.4794 6.79498 0.660263 -2.5264
lowerback 0.104096 -0.740695 0.733396
upperback 4.78178 -1.09133 2.0005
thorax 4.90257 -0.559719 1.61231
lowerneck -11.8553 0.350211 -2.38661
upperneck 31.8378 0.871502 0.729823
head 12.4817 0.190539 0.81653
rclavicle -2.6339e-015 5.56597e-015
rhumerus -18.9964 -15.4721 -81.6629
rradius 25.9644
rwrist 31.5844
rhand -18.3077 -26.4801
rfingers 7.12502
rthumb 7.97337 -56.3097
lclavicle -2.6339e-015 5.56597e-015
lhumerus -16.9865 -0.741226 87.7542
lradius 18.8203
lwrist 0.470007
lhand -23.2349 -3.25299
lfingers 7.12502
lthumb 3.21625 26.7025
rfemur -16.5422 -2.80607 19.8556
rtibia 24.813
rfoot -14.3615 -2.8685
rtoes 3.6126
lfemur -17.7833 7.82491 -16.8119
ltibia 25.0365
lfoot -12.3286 4.789
ltoes -13.5494
187
root 0.472539 17.4 -14.4851 6.83174 0.643569 -2.52285
lowerback 0.180189 -0.735289 0.706747
upperback 4.77064 -1.08149 1.99801
thorax 4.84771 -0.555846 1.62597
lowerneck -11.867 0.351336 -2.37286
upperneck 31.6717 0.870127 0.726063
head 12.4159 0.192795 0.811165
rclavicle -1.49089e-015 4.37326e-015
rhumerus -19.0019 -15.4686 -81.6191
rradius 25.9354
rwrist 31.5522
rhand -18.3379 -26.3991
rfingers 7.12502
rthumb 7.94419 -56.2298
lclavicle -1.49089e-015 4.37326e-015
lhumerus -17.0681 -0.706761 87.7164
lradius 18.8606
lwrist 0.593763
lhand -23.2756 -3.27862
lfingers 7.12502
lthumb 3.17699 26.6775
rfemur -16.7609 -2.78494 19.8541
rtibia 25.1043
rfoot -14.4538 -2.90273
rtoes 3.51393
lfemur -17.9832 7.86334 -16.8299
ltibia 25.2967
lfoot -12.4189 4.81127
ltoes -13.612
188
root 0.472739 17.3922 -14.4913 6.87451 0.616489 -2.51744
lowerback 0.258266 -0.726648 0.676228
upperback 4.75944 -1.06715 1.99301
thorax 4.79158 -0.549821 1.63938
lowerneck -11.876 0.35452 -2.35476
upperneck 31.4971 0.870193 0.723229
head 12.3463 0.19638 0.805521
rclavicle 2.98177e-015 1.43125e-014
rhumerus -19.0016 -15.5067 -81.5672
rradius 25.8795
rwrist 31.5461
rhand -18.3717 -26.3186
rfingers 7.12502
rthumb 7.91163 -56.1506
lclavicle 2.98177e-015 1.43125e-014
lhumerus -17.1546 -0.673687 87.6725
lradius 18.8968
lwrist 0.742317
lhand -23.3288 -3.30184
lfingers 7.12502
lthumb 3.12558 26.655
rfemur -17.002 -2.75426 19.8504
rtibia 25.4185
rfoot -14.5497 -2.93536
rtoes 3.41551
lfemur -18.1983 7.90846 -16.8514
ltibia 25.5709
lfoot -12.5104 4.83934
ltoes -13.6831
189
root 0.472863 17.3839 -14.498 6.92184 0.58043 -2.50898
lowerback 0.341485 -0.716355 0.640542
upperback 4.74825 -1.05038 1.98607
thorax 4.73254 -0.542732 1.6538
lowerneck -11.8764 0.360516 -2.33764
upperneck 31.3087 0.873059 0.724052
head 12.2694 0.201666 0.801667
rclavicle -1.77912e-014 1.80894e-014
rhumerus -18.997 -15.5843 -81.5062
rradius 25.7966
rwrist 31.5717
rhand -18.4086 -26.241
rfingers 7.12502
rthumb 7.87596 -56.0742
lclavicle -1.77912e-014 1.80894e-014
lhumerus -17.2479 -0.640635 87.6218
lradius 18.9293
lwrist 0.906513
lhand -23.3974 -3.32295
lfingers 7.12502
lthumb 3.05934 26.6348
rfemur -17.2619 -2.71958 19.8436
rtibia 25.752
rfoot -14.6488 -2.96591
rtoes 3.30358
lfemur -18.426 7.96053 -16.8777
ltibia 25.8569
lfoot -12.6039 4.86977
ltoes -13.7534
190
root 0.472856 17.3752 -14.5052 6.9731 0.535998 -2.49687
lowerback 0.432595 -0.7045 0.599245
upperback 4.73708 -1.03125 1.97692
thorax 4.66902 -0.534621 1.66922
lowerneck -11.8701 0.369368 -2.31885
upperneck 31.108 0.879301 0.725061
head 12.1864 0.20876 0.797918
rclavicle 3.32964e-015 -1.47101e-014
rhumerus -18.9893 -15.7006 -81.4376
rradius 25.6907
rwrist 31.6306
rhand -18.4415 -26.1797
rfingers 7.12502
rthumb 7.84423 -56.0142
lclavicle 3.32964e-015 -1.47101e-014
lhumerus -17.3485 -0.606298 87.5634
lradius 18.9572
lwrist 1.07548
lhand -23.4757 -3.34758
lfingers 7.12502
lthumb 2.98374 26.6113
rfemur -17.5374 -2.67836 19.8325
rtibia 26.1008
rfoot -14.7514 -2.99305
rtoes 3.1906
lfemur -18.6652 8.01828 -16.9091
ltibia 26.153
lfoot -12.6975 4.90287
ltoes -13.823
191
root 0.472773 17.3661 -14.5132 7.02747 0.489505 -2.47973
lowerback 0.534016 -0.693592 0.551751
upperback 4.72614 -1.01314 1.96656
thorax 4.60002 -0.527202 1.68689
lowerneck -11.8564 0.381031 -2.30196
upperneck 30.8928 0.889698 0.726354
head 12.0964 0.217632 0.795014
rclavicle -1.54058e-015 1.0138e-014
rhumerus -18.9834 -15.8444 -81.3614
rradius 25.5732
rwrist 31.7157
rhand -18.4717 -26.131
rfingers 7.12502
rthumb 7.81503 -55.9666
lclavicle -1.54058e-015 1.0138e-014
lhumerus -17.4559 -0.559398 87.4978
lradius 18.9787
lwrist 1.23246
lhand -23.5584 -3.37424
lfingers 7.12502
lthumb 2.90383 26.5857
rfemur -17.8261 -2.64188 19.8164
rtibia 26.4613
rfoot -14.8572 -3.0176
rtoes 3.05012
lfemur -18.9151 8.08024 -16.9474
ltibia 26.4583
lfoot -12.7928 4.93566
ltoes -13.8985
192
root 0.472616 17.3567 -14.5219 7.08419 0.442444 -2.46049
lowerback 0.646671 -0.683151 0.502804
upperback 4.71731 -0.995547 1.95504
thorax 4.52687 -0.520045 1.70425
lowerneck -11.8427 0.394255 -2.28523
upperneck 30.6656 0.902913 0.725791
head 12.002 0.227602 0.791721
rclavicle -8.29926e-015 7.7526e-015
rhumerus -18.981 -16.007 -81.2799
rradius 25.4524
rwrist 31.8163
rhand -18.4935 -26.1018
rfingers 7.12502
rthumb 7.794 -55.9382
lclavicle -8.29926e-015 7.7526e-015
lhumerus -17.5644 -0.501158 87.4242
lradius 18.9889
lwrist 1.36781
lhand -23.6454 -3.40206
lfingers 7.12502
lthumb 2.81984 26.559
rfemur -18.1246 -2.60603 19.7982
rtibia 26.8304
rfoot -14.967 -3.04202
rtoes 2.90831
lfemur -19.1743 8.14348 -16.9885
ltibia 26.7727
lfoot -12.8913 4.96946
ltoes -13.9739
193
root 0.47247 17.3469 -14.5314 7.14315 0.394916 -2.44016
lowerback 0.77162 -0.671702 0.456102
upperback 4.71132 -0.976582 1.94163
thorax 4.44961 -0.512037 1.71851
lowerneck -11.8317 0.407113 -2.27015
upperneck 30.4252 0.915221 0.727917
head 11.9034 0.237431 0.789509
rclavicle -1.30701e-014 1.90833e-014
rhumerus -18.9877 -16.187 -81.1925
rradius 25.3369
rwrist 31.9339
rhand -18.51 -26.0826
rfingers 7.12502
rthumb 7.77808 -55.9195
lclavicle -1.30701e-014 1.90833e-014
lhumerus -17.6721 -0.439393 87.3438
lradius 18.9898
lwrist 1.48405
lhand -23.7387 -3.44403
lfingers 7.12502
lthumb 2.72971 26.5182
rfemur -18.4315 -2.57145 19.779
rtibia 27.205
rfoot -15.0788 -3.06781
rtoes 2.75776
lfemur -19.4431 8.21125 -17.0321
ltibia 27.0966
lfoot -12.9947 5.00169
ltoes -14.052
194
root 0.472456 17.3369 -14.5415 7.20659 0.349274 -2.42063
lowerback 0.906584 -0.660508 0.413669
upperback 4.70947 -0.958112 1.92842
thorax 4.37098 -0.50409 1.73063
lowerneck -11.8342 0.419938 -2.25481
upperneck 30.1769 0.928685 0.727127
head 11.805 0.247496 0.78633
rclavicle -2.03754e-015 2.38542e-015
rhumerus -19.0021 -16.3697 -81.0998
rradius 25.2315
rwrist 32.0556
rhand -18.5244 -26.0776
rfingers 7.12502
rthumb 7.76417 -55.9151
lclavicle -2.03754e-015 2.38542e-015
lhumerus -17.7755 -0.368578 87.2585
lradius 18.9818
lwrist 1.58103
lhand -23.8325 -3.4836
lfingers 7.12502
lthumb 2.63911 26.4798
rfemur -18.7483 -2.54007 19.7605
rtibia 27.5837
rfoot -15.1923 -3.09282
rtoes 2.61824
lfemur -19.7247 8.28024 -17.0764
ltibia 27.4296
lfoot -13.1017 5.03366
ltoes -14.1325
195
root 0.472603 17.3266 -14.5524 7.27633 0.306658 -2.40264
lowerback 1.05038 -0.649012 0.377718
upperback 4.70993 -0.939385 1.91499
thorax 4.28968 -0.49573 1.73894
lowerneck -11.8412 0.432174 -2.23977
upperneck 29.9165 0.941507 0.726194
head 11.7033 0.257331 0.782999
rclavicle -1.02871e-014 7.95139e-016
rhumerus -19.027 -16.5649 -80.9996
rradius 25.1306
rwrist 32.1934
rhand -18.5366 -26.0807
rfingers 7.12502
rthumb 7.75242 -55.9186
lclavicle -1.02871e-014 7.95139e-016
lhumerus -17.8803 -0.301099 87.1691
lradius 18.9711
lwrist 1.66902
lhand -23.9161 -3.50696
lfingers 7.12502
lthumb 2.55838 26.4574
rfemur -19.0761 -2.51477 19.744
rtibia 27.9652
rfoot -15.3089 -3.11567
rtoes 2.49651
lfemur -20.0223 8.35395 -17.122
ltibia 27.7721
lfoot -13.2122 5.06197
ltoes -14.2159
196
root 0.472925 17.3162 -14.5638 7.35387 0.269469 -2.38214
lowerback 1.19748 -0.638674 0.343259
upperback 4.71511 -0.922403 1.90158
thorax 4.2115 -0.488178 1.74635
lowerneck -11.8598 0.44471 -2.22152
upperneck 29.647 0.955846 0.720007
head 11.6011 0.267624 0.777369
rclavicle -3.08116e-015 -1.70955e-014
rhumerus -19.061 -16.7642 -80.893
rradius 25.0367
rwrist 32.3376
rhand -18.5596 -26.0811
rfingers 7.12502
rthumb 7.73026 -55.9198
lclavicle -3.08116e-015 -1.70955e-014
lhumerus -17.9863 -0.223315 87.0757
lradius 18.9639
lwrist 1.74624
lhand -23.9785 -3.52307
lfingers 7.12502
lthumb 2.49813 26.442
rfemur -19.4158 -2.49767 19.7251
rtibia 28.3497
rfoot -15.4304 -3.1351
rtoes 2.40156
lfemur -20.3378 8.42823 -17.1735
ltibia 28.1243
lfoot -13.3256 5.08792
ltoes -14.3
